<svg width="12" height="12" viewBox="0 0 12 12" fill="none" xmlns="http://www.w3.org/2000/svg">
<path d="M3.5 1C3.63261 1 3.75979 1.05268 3.85355 1.14645C3.94732 1.24021 4 1.36739 4 1.5H8C8 1.36739 8.05268 1.24021 8.14645 1.14645C8.24021 1.05268 8.36739 1 8.5 1C8.63261 1 8.75979 1.05268 8.85355 1.14645C8.94732 1.24021 9 1.36739 9 1.5H10C10.2652 1.5 10.5196 1.60536 10.7071 1.79289C10.8946 1.98043 11 2.23478 11 2.5V10C11 10.2652 10.8946 10.5196 10.7071 10.7071C10.5196 10.8946 10.2652 11 10 11H2C1.73478 11 1.48043 10.8946 1.29289 10.7071C1.10536 10.5196 1 10.2652 1 10V2.5C1 2.23478 1.10536 1.98043 1.29289 1.79289C1.48043 1.60536 1.73478 1.5 2 1.5H3C3 1.36739 3.05268 1.24021 3.14645 1.14645C3.24021 1.05268 3.36739 1 3.5 1ZM8 2.5H4C4 2.63261 3.94732 2.75979 3.85355 2.85355C3.75979 2.94732 3.63261 3 3.5 3C3.36739 3 3.24021 2.94732 3.14645 2.85355C3.05268 2.75979 3 2.63261 3 2.5H2V10H10V2.5H9C9 2.63261 8.94732 2.75979 8.85355 2.85355C8.75979 2.94732 8.63261 3 8.5 3C8.36739 3 8.24021 2.94732 8.14645 2.85355C8.05268 2.75979 8 2.63261 8 2.5ZM4.5 7.5C4.5 7.36739 4.44732 7.24021 4.35355 7.14645C4.25979 7.05268 4.13261 7 4 7H3.5C3.36739 7 3.24021 7.05268 3.14645 7.14645C3.05268 7.24021 3 7.36739 3 7.5V8C3 8.13261 3.05268 8.25979 3.14645 8.35355C3.24021 8.44732 3.36739 8.5 3.5 8.5H4C4.13261 8.5 4.25979 8.44732 4.35355 8.35355C4.44732 8.25979 4.5 8.13261 4.5 8V7.5ZM5.25 5C5.25 4.86739 5.30268 4.74021 5.39645 4.64645C5.49021 4.55268 5.61739 4.5 5.75 4.5H6.25C6.38261 4.5 6.50979 4.55268 6.60355 4.64645C6.69732 4.74021 6.75 4.86739 6.75 5V5.5C6.75 5.63261 6.69732 5.75979 6.60355 5.85355C6.50979 5.94732 6.38261 6 6.25 6H5.75C5.61739 6 5.49021 5.94732 5.39645 5.85355C5.30268 5.75979 5.25 5.63261 5.25 5.5V5ZM6.75 7.5C6.75 7.36739 6.69732 7.24021 6.60355 7.14645C6.50979 7.05268 6.38261 7 6.25 7H5.75C5.61739 7 5.49021 7.05268 5.39645 7.14645C5.30268 7.24021 5.25 7.36739 5.25 7.5V8C5.25 8.13261 5.30268 8.25979 5.39645 8.35355C5.49021 8.44732 5.61739 8.5 5.75 8.5H6.25C6.38261 8.5 6.50979 8.44732 6.60355 8.35355C6.69732 8.25979 6.75 8.13261 6.75 8V7.5ZM7.5 7.5C7.5 7.36739 7.55268 7.24021 7.64645 7.14645C7.74021 7.05268 7.86739 7 8 7H8.5C8.63261 7 8.75979 7.05268 8.85355 7.14645C8.94732 7.24021 9 7.36739 9 7.5V8C9 8.13261 8.94732 8.25979 8.85355 8.35355C8.75979 8.44732 8.63261 8.5 8.5 8.5H8C7.86739 8.5 7.74021 8.44732 7.64645 8.35355C7.55268 8.25979 7.5 8.13261 7.5 8V7.5ZM9 5C9 4.86739 8.94732 4.74021 8.85355 4.64645C8.75979 4.55268 8.63261 4.5 8.5 4.5H8C7.86739 4.5 7.74021 4.55268 7.64645 4.64645C7.55268 4.74021 7.5 4.86739 7.5 5V5.5C7.5 5.63261 7.55268 5.75979 7.64645 5.85355C7.74021 5.94732 7.86739 6 8 6H8.5C8.63261 6 8.75979 5.94732 8.85355 5.85355C8.94732 5.75979 9 5.63261 9 5.5V5Z" fill="#A6A6A6"/>
</svg>
