<svg width="16" height="16" viewBox="0 0 16 16" fill="none" xmlns="http://www.w3.org/2000/svg">
<mask id="path-1-inside-1_2_8339" fill="white">
<path d="M0 8C0 3.58172 3.58172 0 8 0C12.4183 0 16 3.58172 16 8C16 12.4183 12.4183 16 8 16C3.58172 16 0 12.4183 0 8Z"/>
</mask>
<path d="M0 8C0 3.58172 3.58172 0 8 0C12.4183 0 16 3.58172 16 8C16 12.4183 12.4183 16 8 16C3.58172 16 0 12.4183 0 8Z" fill="#419E34"/>
<path d="M8 16V15C4.13401 15 1 11.866 1 8H0H-1C-1 12.9706 3.02944 17 8 17V16ZM16 8H15C15 11.866 11.866 15 8 15V16V17C12.9706 17 17 12.9706 17 8H16ZM8 0V1C11.866 1 15 4.13401 15 8H16H17C17 3.02944 12.9706 -1 8 -1V0ZM8 0V-1C3.02944 -1 -1 3.02944 -1 8H0H1C1 4.13401 4.13401 1 8 1V0Z" fill="#419E34" mask="url(#path-1-inside-1_2_8339)"/>
<path d="M11.589 4.90294L12.397 5.71194C12.4295 5.74444 12.4553 5.78303 12.4729 5.82549C12.4904 5.86796 12.4995 5.91347 12.4995 5.95944C12.4995 6.00541 12.4904 6.05092 12.4729 6.09339C12.4553 6.13585 12.4295 6.17444 12.397 6.20694L7.17998 11.4249C7.14748 11.4574 7.10889 11.4832 7.06643 11.5008C7.02396 11.5184 6.97844 11.5275 6.93248 11.5275C6.88651 11.5275 6.841 11.5184 6.79853 11.5008C6.75606 11.4832 6.71748 11.4574 6.68498 11.4249L3.70398 8.44494C3.67132 8.41242 3.64541 8.37377 3.62773 8.33121C3.61005 8.28866 3.60095 8.24303 3.60095 8.19694C3.60095 8.15086 3.61005 8.10522 3.62773 8.06267C3.64541 8.02011 3.67132 7.98146 3.70398 7.94894L4.51198 7.14094C4.54448 7.10844 4.58306 7.08265 4.62553 7.06506C4.668 7.04747 4.71351 7.03841 4.75948 7.03841C4.80544 7.03841 4.85096 7.04747 4.89343 7.06506C4.93589 7.08265 4.97448 7.10844 5.00698 7.14094L6.93198 9.06594L11.095 4.90294C11.1275 4.87044 11.1661 4.84465 11.2085 4.82706C11.251 4.80947 11.2965 4.80042 11.3425 4.80042C11.3884 4.80042 11.434 4.80947 11.4764 4.82706C11.5189 4.84465 11.5575 4.87044 11.59 4.90294H11.589Z" fill="white"/>
</svg>
