<svg width="14" height="14" viewBox="0 0 14 14" fill="none" xmlns="http://www.w3.org/2000/svg">
<path d="M5.95408 2.1629C6.06034 2.05288 6.11913 1.90553 6.11781 1.75258C6.11648 1.59963 6.05513 1.45333 5.94697 1.34517C5.83882 1.23702 5.69251 1.17567 5.53956 1.17434C5.38662 1.17301 5.23926 1.23181 5.12925 1.33806L2.91666 3.55065L1.87075 2.50473C1.81694 2.44902 1.75257 2.40458 1.6814 2.37401C1.61023 2.34343 1.53369 2.32734 1.45623 2.32667C1.37878 2.326 1.30196 2.34076 1.23027 2.37009C1.15858 2.39942 1.09345 2.44273 1.03868 2.4975C0.983912 2.55227 0.940598 2.6174 0.911267 2.68909C0.881937 2.76078 0.867177 2.83759 0.86785 2.91505C0.868523 2.9925 0.884615 3.06905 0.915187 3.14022C0.945759 3.21139 0.990199 3.27575 1.04591 3.32957L2.50425 4.7879C2.61364 4.89726 2.76198 4.95869 2.91666 4.95869C3.07134 4.95869 3.21969 4.89726 3.32908 4.7879L5.95408 2.1629ZM7.58333 2.91657C7.42862 2.91657 7.28025 2.97802 7.17085 3.08742C7.06145 3.19682 7 3.34519 7 3.4999C7 3.65461 7.06145 3.80298 7.17085 3.91238C7.28025 4.02177 7.42862 4.08323 7.58333 4.08323H12.25C12.4047 4.08323 12.5531 4.02177 12.6625 3.91238C12.7719 3.80298 12.8333 3.65461 12.8333 3.4999C12.8333 3.34519 12.7719 3.19682 12.6625 3.08742C12.5531 2.97802 12.4047 2.91657 12.25 2.91657H7.58333ZM3.5 8.16656C2.88116 8.16656 2.28767 8.4124 1.85008 8.84998C1.4125 9.28757 1.16666 9.88106 1.16666 10.4999C1.16666 11.1187 1.4125 11.7122 1.85008 12.1498C2.28767 12.5874 2.88116 12.8332 3.5 12.8332C4.11883 12.8332 4.71233 12.5874 5.14991 12.1498C5.5875 11.7122 5.83333 11.1187 5.83333 10.4999C5.83333 9.88106 5.5875 9.28757 5.14991 8.84998C4.71233 8.4124 4.11883 8.16656 3.5 8.16656ZM2.33333 10.4999C2.33333 10.1905 2.45625 9.89373 2.67504 9.67494C2.89383 9.45615 3.19058 9.33323 3.5 9.33323C3.80942 9.33323 4.10616 9.45615 4.32495 9.67494C4.54375 9.89373 4.66666 10.1905 4.66666 10.4999C4.66666 10.8093 4.54375 11.1061 4.32495 11.3249C4.10616 11.5436 3.80942 11.6666 3.5 11.6666C3.19058 11.6666 2.89383 11.5436 2.67504 11.3249C2.45625 11.1061 2.33333 10.8093 2.33333 10.4999ZM7 10.4999C7 10.3452 7.06145 10.1968 7.17085 10.0874C7.28025 9.97802 7.42862 9.91656 7.58333 9.91656H12.25C12.4047 9.91656 12.5531 9.97802 12.6625 10.0874C12.7719 10.1968 12.8333 10.3452 12.8333 10.4999C12.8333 10.6546 12.7719 10.803 12.6625 10.9124C12.5531 11.0218 12.4047 11.0832 12.25 11.0832H7.58333C7.42862 11.0832 7.28025 11.0218 7.17085 10.9124C7.06145 10.803 7 10.6546 7 10.4999Z" fill="#A6A6A6"/>
</svg>
