<svg width="12" height="12" viewBox="0 0 12 12" fill="none" xmlns="http://www.w3.org/2000/svg">
<path d="M9.42449 1.34954C9.16031 1.14636 8.85843 0.997637 8.53635 0.911985C8.21427 0.826334 7.87839 0.80546 7.54819 0.850573C7.21798 0.895685 6.90001 1.00589 6.61271 1.17479C6.32541 1.3437 6.07448 1.56795 5.87449 1.83454L4.48499 3.68604C4.29641 3.93737 4.1592 4.22338 4.08119 4.52775C4.00317 4.83212 3.98589 5.14887 4.03033 5.45992C4.07476 5.77097 4.18004 6.07021 4.34016 6.34056C4.50027 6.61091 4.71208 6.84707 4.96349 7.03554L5.44949 7.40004C5.55557 7.47961 5.68892 7.51377 5.8202 7.49502C5.95147 7.47626 6.06992 7.40613 6.14949 7.30004C6.22905 7.19395 6.26322 7.06061 6.24446 6.92933C6.22571 6.79805 6.15557 6.67961 6.04949 6.60004L5.56349 6.23504C5.41721 6.12537 5.29397 5.98795 5.20081 5.83064C5.10765 5.67334 5.04639 5.49922 5.02052 5.31823C4.99466 5.13724 5.00471 4.95293 5.05008 4.77583C5.09546 4.59872 5.17528 4.43229 5.28499 4.28604L6.67349 2.43454C6.79397 2.27241 6.94559 2.13595 7.11947 2.03315C7.29335 1.93034 7.48599 1.86327 7.68612 1.83584C7.88624 1.80841 8.08983 1.82119 8.28495 1.87342C8.48008 1.92566 8.66282 2.0163 8.82248 2.14003C8.98214 2.26377 9.11551 2.41812 9.21478 2.59404C9.31404 2.76996 9.37721 2.96392 9.40059 3.16456C9.42396 3.3652 9.40707 3.56848 9.35091 3.76251C9.29474 3.95654 9.20043 4.13741 9.07349 4.29454L8.35899 5.18754C8.27611 5.29111 8.23776 5.42336 8.25239 5.55519C8.26702 5.68703 8.33342 5.80766 8.43699 5.89054C8.54055 5.97342 8.6728 6.01176 8.80464 5.99714C8.93648 5.98251 9.05711 5.91611 9.13999 5.81254L9.85499 4.91854C10.064 4.65715 10.2189 4.3567 10.3105 4.03477C10.4021 3.71284 10.4286 3.37589 10.3885 3.04359C10.3483 2.7113 10.2424 2.39034 10.0768 2.09947C9.91117 1.8086 9.68925 1.55365 9.42399 1.34954H9.42449Z" fill="#A6A6A6"/>
<path d="M2.57601 10.6505C2.84019 10.8537 3.14207 11.0024 3.46415 11.0881C3.78623 11.1737 4.12211 11.1946 4.45231 11.1495C4.78252 11.1044 5.10049 10.9942 5.38779 10.8252C5.67509 10.6563 5.92602 10.4321 6.12601 10.1655L7.51451 8.314C7.70309 8.06268 7.8403 7.77666 7.91831 7.47229C7.99633 7.16793 8.01361 6.85117 7.96917 6.54012C7.92474 6.22907 7.81946 5.92983 7.65934 5.65948C7.49923 5.38913 7.28742 5.15297 7.03601 4.9645L6.55001 4.6C6.44393 4.52044 6.31058 4.48627 6.1793 4.50503C6.04803 4.52378 5.92958 4.59392 5.85001 4.7C5.77045 4.80609 5.73629 4.93944 5.75504 5.07071C5.77379 5.20199 5.84393 5.32044 5.95001 5.4L6.43651 5.765C6.58275 5.87471 6.70595 6.01216 6.79906 6.16948C6.89218 6.32681 6.95339 6.50094 6.97921 6.68192C7.00502 6.86291 6.99493 7.0472 6.94952 7.22429C6.9041 7.40137 6.82425 7.56778 6.71451 7.714L5.32601 9.5655C5.20553 9.72763 5.05391 9.86409 4.88003 9.9669C4.70615 10.0697 4.51351 10.1368 4.31339 10.1642C4.11326 10.1916 3.90967 10.1789 3.71455 10.1266C3.51942 10.0744 3.33668 9.98375 3.17702 9.86001C3.01736 9.73627 2.88399 9.58192 2.78472 9.406C2.68546 9.23008 2.62229 9.03612 2.59891 8.83549C2.57554 8.63485 2.59243 8.43156 2.64859 8.23753C2.70476 8.0435 2.79907 7.86263 2.92601 7.7055L3.64051 6.8125C3.68155 6.76122 3.71209 6.70236 3.73038 6.63928C3.74867 6.57619 3.75435 6.51013 3.74711 6.44485C3.73987 6.37957 3.71984 6.31635 3.68816 6.25882C3.65649 6.20128 3.61379 6.15054 3.56251 6.1095C3.51123 6.06846 3.45237 6.03793 3.38929 6.01964C3.32621 6.00135 3.26014 5.99566 3.19486 6.00291C3.06302 6.01753 2.94239 6.08393 2.85951 6.1875L2.14451 7.081C1.93533 7.34245 1.78039 7.64299 1.68874 7.96504C1.59709 8.28709 1.57058 8.62418 1.61076 8.95659C1.65094 9.28901 1.757 9.61007 1.92274 9.90101C2.08847 10.1919 2.31056 10.4464 2.57601 10.6505Z" fill="#A6A6A6"/>
</svg>
