<svg width="12" height="12" viewBox="0 0 12 12" fill="none" xmlns="http://www.w3.org/2000/svg">
<path d="M6 1C5.86739 1 5.74021 1.05268 5.64645 1.14645C5.55268 1.24021 5.5 1.36739 5.5 1.5V5.5H1.5C1.36739 5.5 1.24021 5.55268 1.14645 5.64645C1.05268 5.74021 1 5.86739 1 6C1 6.13261 1.05268 6.25979 1.14645 6.35355C1.24021 6.44732 1.36739 6.5 1.5 6.5H5.5V10.5C5.5 10.6326 5.55268 10.7598 5.64645 10.8536C5.74021 10.9473 5.86739 11 6 11C6.13261 11 6.25979 10.9473 6.35355 10.8536C6.44732 10.7598 6.5 10.6326 6.5 10.5V6.5H10.5C10.6326 6.5 10.7598 6.44732 10.8536 6.35355C10.9473 6.25979 11 6.13261 11 6C11 5.86739 10.9473 5.74021 10.8536 5.64645C10.7598 5.55268 10.6326 5.5 10.5 5.5H6.5V1.5C6.5 1.36739 6.44732 1.24021 6.35355 1.14645C6.25979 1.05268 6.13261 1 6 1Z" fill="#EBEBEB"/>
</svg>
