<svg width="14" height="14" viewBox="0 0 14 14" fill="none" xmlns="http://www.w3.org/2000/svg">
<path d="M6.03809 10.1408C6.06698 10.1119 6.0899 10.0776 6.10553 10.0399C6.12117 10.0021 6.12922 9.9617 6.12922 9.92085C6.12922 9.88001 6.12117 9.83956 6.10553 9.80183C6.0899 9.76409 6.06698 9.72981 6.03809 9.70094L5.65309 9.31594C5.62421 9.28705 5.58993 9.26413 5.5522 9.24849C5.51446 9.23285 5.47402 9.22481 5.43317 9.22481C5.39233 9.22481 5.35188 9.23285 5.31415 9.24849C5.27641 9.26413 5.24213 9.28705 5.21325 9.31594L4.08042 10.4488V1.76935C4.08042 1.68689 4.04766 1.60781 3.98936 1.5495C3.93105 1.49119 3.85196 1.45844 3.7695 1.45844H3.22467C3.14221 1.45844 3.06313 1.49119 3.00482 1.5495C2.94651 1.60781 2.91375 1.68689 2.91375 1.76935V10.4459L1.78384 9.31594C1.75496 9.28705 1.72068 9.26413 1.68295 9.24849C1.64521 9.23285 1.60477 9.22481 1.56392 9.22481C1.52308 9.22481 1.48263 9.23285 1.4449 9.24849C1.40716 9.26413 1.37288 9.28705 1.344 9.31594L0.959005 9.70094C0.930114 9.72981 0.907196 9.76409 0.891559 9.80183C0.875922 9.83956 0.867874 9.88001 0.867874 9.92085C0.867874 9.9617 0.875922 10.0021 0.891559 10.0399C0.907196 10.0776 0.930114 10.1119 0.959005 10.1408L3.269 12.4508C3.332 12.5138 3.416 12.5441 3.49884 12.5418C3.54134 12.5432 3.58367 12.5358 3.62321 12.5201C3.66274 12.5045 3.69864 12.4809 3.72867 12.4508L6.03867 10.1408H6.03809ZM7.959 4.29927C7.93003 4.27038 7.90703 4.23606 7.89135 4.19828C7.87566 4.16049 7.86758 4.11998 7.86758 4.07906C7.86758 4.03815 7.87566 3.99763 7.89135 3.95985C7.90703 3.92206 7.93003 3.88774 7.959 3.85885L10.269 1.54885C10.2991 1.51885 10.335 1.49535 10.3745 1.4798C10.4141 1.46424 10.4564 1.45697 10.4988 1.45844C10.5413 1.45705 10.5837 1.46441 10.6232 1.48006C10.6627 1.49572 10.6986 1.51933 10.7287 1.54944L13.0387 3.85944C13.0676 3.88831 13.0905 3.92259 13.1061 3.96033C13.1218 3.99806 13.1298 4.03851 13.1298 4.07935C13.1298 4.1202 13.1218 4.16064 13.1061 4.19838C13.0905 4.23611 13.0676 4.2704 13.0387 4.29927L12.6537 4.68427C12.6248 4.71325 12.5905 4.73624 12.5527 4.75193C12.5149 4.76762 12.4744 4.77569 12.4335 4.77569C12.3925 4.77569 12.352 4.76762 12.3142 4.75193C12.2765 4.73624 12.2421 4.71325 12.2133 4.68427L11.0833 3.55435V12.2501C11.0833 12.3326 11.0506 12.4116 10.9923 12.47C10.934 12.5283 10.8549 12.561 10.7724 12.561H10.2282C10.1872 12.5611 10.1467 12.5531 10.1089 12.5375C10.071 12.5218 10.0367 12.4989 10.0077 12.47C9.9788 12.441 9.95585 12.4066 9.94023 12.3688C9.9246 12.331 9.91659 12.2904 9.91667 12.2495V3.55202L8.78384 4.68427C8.75496 4.71316 8.72068 4.73608 8.68295 4.75172C8.64521 4.76735 8.60477 4.7754 8.56392 4.7754C8.52308 4.7754 8.48263 4.76735 8.4449 4.75172C8.40716 4.73608 8.37288 4.71316 8.344 4.68427L7.959 4.29927Z" fill="#A6A6A6"/>
</svg>
