<svg width="16" height="12" viewBox="0 0 16 12" fill="none" xmlns="http://www.w3.org/2000/svg">
<path d="M4.21851 2.44901L2.72351 6.50001H5.75501L4.21851 2.44901ZM7.23101 10.3895L6.13451 7.50001H2.35451L1.28901 10.39C1.2424 10.5142 1.14837 10.6148 1.02759 10.6696C0.906819 10.7245 0.769201 10.7291 0.645014 10.6825C0.520826 10.6359 0.420242 10.5419 0.365387 10.4211C0.310533 10.3003 0.305902 10.1627 0.352514 10.0385L3.51001 1.49101C3.75551 0.836006 4.68201 0.836006 4.92751 1.49101L8.16751 10.0385C8.19261 10.1004 8.20506 10.1667 8.20412 10.2334C8.20318 10.3002 8.18888 10.3661 8.16206 10.4273C8.13523 10.4884 8.09643 10.5436 8.04794 10.5895C7.99945 10.6354 7.94226 10.6711 7.87973 10.6946C7.81721 10.718 7.75062 10.7287 7.6839 10.726C7.61717 10.7233 7.55167 10.7073 7.49125 10.6788C7.43083 10.6504 7.37672 10.6101 7.33211 10.5604C7.2875 10.5108 7.25329 10.4526 7.23151 10.3895H7.23101ZM7.52801 2.50001C7.39541 2.50001 7.26823 2.55268 7.17446 2.64645C7.08069 2.74022 7.02801 2.8674 7.02801 3.00001C7.02801 3.13261 7.08069 3.25979 7.17446 3.35356C7.26823 3.44733 7.39541 3.50001 7.52801 3.50001H11.5C11.6326 3.50001 11.7598 3.44733 11.8536 3.35356C11.9473 3.25979 12 3.13261 12 3.00001C12 2.8674 11.9473 2.74022 11.8536 2.64645C11.7598 2.55268 11.6326 2.50001 11.5 2.50001H7.52801ZM8.05551 6.00001C8.05551 5.8674 8.10819 5.74022 8.20196 5.64645C8.29573 5.55268 8.42291 5.50001 8.55551 5.50001H11.5C11.6326 5.50001 11.7598 5.55268 11.8536 5.64645C11.9473 5.74022 12 5.8674 12 6.00001C12 6.13261 11.9473 6.25979 11.8536 6.35356C11.7598 6.44733 11.6326 6.50001 11.5 6.50001H8.55501C8.42241 6.50001 8.29523 6.44733 8.20146 6.35356C8.10769 6.25979 8.05551 6.13261 8.05551 6.00001ZM9.58351 8.50001C9.45091 8.50001 9.32373 8.55268 9.22996 8.64645C9.13619 8.74022 9.08351 8.8674 9.08351 9.00001C9.08351 9.13261 9.13619 9.25979 9.22996 9.35356C9.32373 9.44733 9.45091 9.50001 9.58351 9.50001H11.5C11.6326 9.50001 11.7598 9.44733 11.8536 9.35356C11.9473 9.25979 12 9.13261 12 9.00001C12 8.8674 11.9473 8.74022 11.8536 8.64645C11.7598 8.55268 11.6326 8.50001 11.5 8.50001H9.58351Z" fill="#A6A6A6"/>
</svg>
